<mxfile host="Electron" modified="2024-06-28T14:54:12.045Z" agent="Mozilla/5.0 (X11; Linux x86_64) AppleWebKit/537.36 (KHTML, like Gecko) draw.io/24.6.4 Chrome/124.0.6367.207 Electron/30.0.6 Safari/537.36" etag="AEntbhvEJMRg-Yv_Lwe1" version="24.6.4" type="device">
  <diagram name="Seite-1" id="Vcc45p8u5Gj7urx-C7oo">
    <mxGraphModel dx="1149" dy="849" grid="1" gridSize="10" guides="1" tooltips="1" connect="1" arrows="1" fold="1" page="1" pageScale="1" pageWidth="827" pageHeight="1169" math="0" shadow="0">
      <root>
        <mxCell id="0" />
        <mxCell id="1" parent="0" />
        <mxCell id="xJIB-8ku6fqu1qWSekwr-1" value="&lt;font style=&quot;font-size: 16px;&quot;&gt;&lt;b&gt;Index (Get values from project.godot in project root)&lt;/b&gt;&lt;/font&gt;" style="swimlane;fontStyle=0;childLayout=stackLayout;horizontal=1;startSize=26;fillColor=none;horizontalStack=0;resizeParent=1;resizeParentMax=0;resizeLast=0;collapsible=1;marginBottom=0;html=1;" vertex="1" parent="1">
          <mxGeometry x="80" y="40" width="670" height="206" as="geometry">
            <mxRectangle x="80" y="40" width="430" height="30" as="alternateBounds" />
          </mxGeometry>
        </mxCell>
        <mxCell id="xJIB-8ku6fqu1qWSekwr-6" value="&lt;font style=&quot;font-size: 14px;&quot;&gt;&lt;b&gt;[application]&lt;/b&gt;&lt;/font&gt;" style="text;strokeColor=default;fillColor=none;align=left;verticalAlign=top;spacingLeft=4;spacingRight=4;overflow=hidden;rotatable=0;points=[[0,0.5],[1,0.5]];portConstraint=eastwest;whiteSpace=wrap;html=1;" vertex="1" parent="xJIB-8ku6fqu1qWSekwr-1">
          <mxGeometry y="26" width="670" height="32" as="geometry" />
        </mxCell>
        <mxCell id="xJIB-8ku6fqu1qWSekwr-2" value="&lt;font style=&quot;font-size: 13px;&quot;&gt;config/name&lt;span style=&quot;white-space: pre;&quot;&gt;&#x9;&lt;/span&gt;&lt;span style=&quot;white-space: pre;&quot;&gt;&#x9;&lt;/span&gt;&lt;span style=&quot;white-space: pre;&quot;&gt;&#x9;&lt;/span&gt;&lt;span style=&quot;white-space: pre;&quot;&gt;&#x9;&lt;/span&gt;The name of the project --&amp;gt;&amp;nbsp;&quot;...&quot;&lt;/font&gt;" style="text;strokeColor=default;fillColor=none;align=left;verticalAlign=top;spacingLeft=4;spacingRight=4;overflow=hidden;rotatable=0;points=[[0,0.5],[1,0.5]];portConstraint=eastwest;whiteSpace=wrap;html=1;" vertex="1" parent="xJIB-8ku6fqu1qWSekwr-1">
          <mxGeometry y="58" width="670" height="26" as="geometry" />
        </mxCell>
        <mxCell id="xJIB-8ku6fqu1qWSekwr-3" value="&lt;font style=&quot;font-size: 13px;&quot;&gt;run/main_scene&lt;span style=&quot;white-space: pre;&quot;&gt;&#x9;&lt;/span&gt;&lt;span style=&quot;white-space: pre;&quot;&gt;&#x9;&lt;/span&gt;&lt;span style=&quot;white-space: pre;&quot;&gt;&#x9;&lt;/span&gt;First scene loaded at start --&amp;gt;&amp;nbsp;&quot;res://....tscn&quot;&lt;/font&gt;" style="text;strokeColor=default;fillColor=none;align=left;verticalAlign=top;spacingLeft=4;spacingRight=4;overflow=hidden;rotatable=0;points=[[0,0.5],[1,0.5]];portConstraint=eastwest;whiteSpace=wrap;html=1;" vertex="1" parent="xJIB-8ku6fqu1qWSekwr-1">
          <mxGeometry y="84" width="670" height="26" as="geometry" />
        </mxCell>
        <mxCell id="xJIB-8ku6fqu1qWSekwr-4" value="&lt;font style=&quot;font-size: 13px;&quot;&gt;config/features&lt;span style=&quot;white-space: pre;&quot;&gt;&#x9;&lt;span style=&quot;white-space: pre;&quot;&gt;&#x9;&lt;span style=&quot;white-space: pre;&quot;&gt;&#x9;&lt;/span&gt;&lt;/span&gt;&lt;/span&gt;Godot version --&amp;gt;&amp;nbsp;PackedStringArray(&quot;4.2&quot;, &quot;Forward Plus&quot;)&lt;/font&gt;" style="text;strokeColor=default;fillColor=none;align=left;verticalAlign=top;spacingLeft=4;spacingRight=4;overflow=hidden;rotatable=0;points=[[0,0.5],[1,0.5]];portConstraint=eastwest;whiteSpace=wrap;html=1;" vertex="1" parent="xJIB-8ku6fqu1qWSekwr-1">
          <mxGeometry y="110" width="670" height="32" as="geometry" />
        </mxCell>
        <mxCell id="xJIB-8ku6fqu1qWSekwr-8" value="&lt;font style=&quot;font-size: 14px;&quot;&gt;&lt;b&gt;[autoload]&lt;/b&gt;&lt;/font&gt;" style="text;strokeColor=default;fillColor=none;align=left;verticalAlign=top;spacingLeft=4;spacingRight=4;overflow=hidden;rotatable=0;points=[[0,0.5],[1,0.5]];portConstraint=eastwest;whiteSpace=wrap;html=1;" vertex="1" parent="xJIB-8ku6fqu1qWSekwr-1">
          <mxGeometry y="142" width="670" height="32" as="geometry" />
        </mxCell>
        <mxCell id="xJIB-8ku6fqu1qWSekwr-7" value="List of autoloaded scenes&lt;span style=&quot;white-space: pre;&quot;&gt;&#x9;&lt;/span&gt;&amp;nbsp; &amp;nbsp; SceneName=&quot;*res://....tscn&quot;" style="text;strokeColor=default;fillColor=none;align=left;verticalAlign=top;spacingLeft=4;spacingRight=4;overflow=hidden;rotatable=0;points=[[0,0.5],[1,0.5]];portConstraint=eastwest;whiteSpace=wrap;html=1;" vertex="1" parent="xJIB-8ku6fqu1qWSekwr-1">
          <mxGeometry y="174" width="670" height="32" as="geometry" />
        </mxCell>
        <mxCell id="xJIB-8ku6fqu1qWSekwr-9" value="&lt;font style=&quot;font-size: 14px;&quot;&gt;&lt;b&gt;Scene --&amp;gt; ....tscn&lt;/b&gt;&lt;/font&gt;" style="swimlane;fontStyle=0;childLayout=stackLayout;horizontal=1;startSize=26;fillColor=none;horizontalStack=0;resizeParent=1;resizeParentMax=0;resizeLast=0;collapsible=1;marginBottom=0;html=1;" vertex="1" parent="1">
          <mxGeometry x="80" y="290" width="670" height="52" as="geometry" />
        </mxCell>
        <mxCell id="xJIB-8ku6fqu1qWSekwr-10" value="Script attached&lt;span style=&quot;white-space: pre;&quot;&gt;&#x9;&lt;/span&gt;&lt;span style=&quot;white-space: pre;&quot;&gt;&#x9;&lt;/span&gt;&lt;span style=&quot;white-space: pre;&quot;&gt;&#x9;&lt;/span&gt;&amp;nbsp; &amp;nbsp;&amp;nbsp;[ext_resource type=&quot;Script&quot; path=&quot;res://....gd&quot; ...&quot;]" style="text;strokeColor=none;fillColor=none;align=left;verticalAlign=top;spacingLeft=4;spacingRight=4;overflow=hidden;rotatable=0;points=[[0,0.5],[1,0.5]];portConstraint=eastwest;whiteSpace=wrap;html=1;" vertex="1" parent="xJIB-8ku6fqu1qWSekwr-9">
          <mxGeometry y="26" width="670" height="26" as="geometry" />
        </mxCell>
        <mxCell id="xJIB-8ku6fqu1qWSekwr-13" style="edgeStyle=orthogonalEdgeStyle;rounded=0;orthogonalLoop=1;jettySize=auto;html=1;entryX=0.001;entryY=0.077;entryDx=0;entryDy=0;entryPerimeter=0;" edge="1" parent="1" source="xJIB-8ku6fqu1qWSekwr-3" target="xJIB-8ku6fqu1qWSekwr-10">
          <mxGeometry relative="1" as="geometry" />
        </mxCell>
        <mxCell id="xJIB-8ku6fqu1qWSekwr-14" style="edgeStyle=orthogonalEdgeStyle;rounded=0;orthogonalLoop=1;jettySize=auto;html=1;entryX=1.003;entryY=0.192;entryDx=0;entryDy=0;entryPerimeter=0;exitX=1;exitY=0.5;exitDx=0;exitDy=0;" edge="1" parent="1" source="xJIB-8ku6fqu1qWSekwr-7" target="xJIB-8ku6fqu1qWSekwr-10">
          <mxGeometry relative="1" as="geometry" />
        </mxCell>
      </root>
    </mxGraphModel>
  </diagram>
</mxfile>
